<svg width="101" height="28" viewBox="0 0 101 28" fill="none" xmlns="http://www.w3.org/2000/svg">
<path d="M71.8806 10.3633V16.6916C71.8806 18.8913 70.9981 21.0009 69.4273 22.5563C67.8565 24.1117 65.726 24.9855 63.5046 24.9855H58.4789V2.08594L63.5046 2.08594C65.726 2.08594 67.8565 2.95976 69.4273 4.51518C70.9981 6.07059 71.8806 8.18019 71.8806 10.3799V10.3633Z" stroke="black" stroke-width="2" stroke-linecap="round" stroke-linejoin="round"/>
<path d="M58.4873 8.28198H48.7794" stroke="black" stroke-width="2" stroke-linecap="round" stroke-linejoin="round"/>
<path d="M58.4873 18.1516H48.7794" stroke="black" stroke-width="2" stroke-linecap="round" stroke-linejoin="round"/>
<path d="M72.6709 12.9449C72.6709 12.9449 74.3335 12.9449 74.3335 14.1919C74.3335 15.4389 72.6709 15.4389 72.6709 15.4389" stroke="black" stroke-width="2"/>
<path d="M74.8428 14.0892C74.8428 14.0892 81.3269 14.0891 83.9206 12.144C86.5143 10.1988 88.1235 3.41701 91.7016 1.76934C94.2732 0.58516 100.131 1.12087 100.131 1.12087" stroke="black" stroke-width="2"/>
<path d="M27.4464 11.859C27.4464 11.859 25.8037 11.859 25.8037 13.091C25.8037 14.323 27.4464 14.323 27.4464 14.323" stroke="black" stroke-width="2"/>
<path d="M28.147 16.708V10.3797C28.147 8.18003 29.0294 6.07043 30.6003 4.51501C32.1711 2.9596 34.3016 2.08577 36.523 2.08577H41.5487V24.9854H36.523C34.3016 24.9854 32.1711 24.1115 30.6003 22.5561C29.0294 21.0007 28.147 18.8911 28.147 16.6914V16.708Z" stroke="black" stroke-width="2" stroke-linecap="round" stroke-linejoin="round"/>
<path d="M26.2883 13.1924C26.2883 13.1924 19.8042 13.1925 17.2105 15.1377C14.6168 17.0828 13.0076 23.8646 9.42948 25.5123C6.85792 26.6965 1.00006 26.1607 1.00006 26.1607" stroke="black" stroke-width="2"/>
</svg>
